#!OML:ASF I:\golf\golf\golf 2\Subject 1\2002-09-07\Subject1.ASF
:FULLY-SPECIFIED
:DEGREES
482
root 2.33164 17.7628 -4.99679 6.29336 -1.8889 -1.62184
lowerback 0.282619 0.134884 -6.61483
upperback 0.965002 0.170103 3.72868
thorax 0.81297 0.0184165 7.63021
lowerneck -21.0885 -9.54842 -6.00555
upperneck 11.9342 -12.4144 7.02345
head 7.92609 -5.51796 1.6339
rclavicle 1.39149e-015 -3.18055e-014
rhumerus -34.334 -14.0504 -71.9364
rradius 24.7111
rwrist -15.1971
rhand -14.9375 0.0171271
rfingers 7.12502
rthumb 11.2251 -29.6626
lclavicle 1.39149e-015 -3.18055e-014
lhumerus -28.903 3.47111 82.7991
lradius 29.6912
lwrist 4.8808
lhand -10.3395 31.8474
lfingers 7.12502
lthumb 15.6567 61.2339
rfemur -31.0904 7.10208 12.3598
rtibia 27.7023
rfoot -1.27189 5.49014
rtoes 7.28411
lfemur -10.417 3.88088 -21.8423
ltibia 29.2808
lfoot -20.0816 1.16565
ltoes -4.12929
483
root 2.33527 17.766 -5.0086 6.27454 -2.01109 -1.6242
lowerback 0.151055 0.0755353 -6.6673
upperback 0.885805 0.0978384 3.70173
thorax 0.817833 -0.0157495 7.63171
lowerneck -20.9832 -9.49801 -5.92869
upperneck 12.0224 -12.3651 6.93783
head 7.9242 -5.50063 1.6043
rclavicle -3.97569e-016 -3.97569e-016
rhumerus -35.0238 -15.5478 -71.0736
rradius 23.6846
rwrist -14.1031
rhand -15.2255 0.0610032
rfingers 7.12502
rthumb 10.9472 -29.6336
lclavicle -3.97569e-016 -3.97569e-016
lhumerus -29.2217 4.0894 82.4981
lradius 29.0601
lwrist 4.26886
lhand -10.2777 32.0019
lfingers 7.12502
lthumb 15.7163 61.3837
rfemur -31.0255 7.19374 12.3594
rtibia 27.5554
rfoot -1.40642 5.3366
rtoes 5.72567
lfemur -10.3783 3.91816 -21.8697
ltibia 29.1997
lfoot -20.1164 1.37207
ltoes -4.8807
484
root 2.33744 17.7721 -5.01905 6.23645 -1.98885 -1.60702
lowerback 0.00038674 -0.0268235 -6.78426
upperback 0.870743 -0.0303357 3.71313
thorax 0.910718 -0.0846757 7.71145
lowerneck -21.0739 -9.47854 -5.87305
upperneck 12.2147 -12.3465 6.84131
head 7.99181 -5.49188 1.56063
rclavicle 1.49089e-015 1.78906e-014
rhumerus -35.6233 -16.9678 -70.1353
rradius 22.706
rwrist -12.9008
rhand -15.4088 0.0742081
rfingers 7.12502
rthumb 10.7705 -29.6297
lclavicle 1.49089e-015 1.78906e-014
lhumerus -29.4561 4.60103 82.2986
lradius 28.4665
lwrist 3.76658
lhand -10.1217 32.2159
lfingers 7.12502
lthumb 15.8665 61.5858
rfemur -30.9013 7.19656 12.3467
rtibia 27.4223
rfoot -1.78878 5.02157
rtoes 6.79361
lfemur -10.3384 3.89961 -21.895
ltibia 29.1404
lfoot -20.1808 1.44113
ltoes -5.10957
485
root 2.3404 17.7763 -5.03234 6.29644 -2.00179 -1.50833
lowerback -0.0990371 -0.152397 -6.98284
upperback 0.757089 -0.192477 3.71305
thorax 0.879495 -0.16251 7.82539
lowerneck -21.1702 -9.45084 -5.86773
upperneck 12.4633 -12.3064 6.74627
head 8.08137 -5.47379 1.52687
rclavicle 3.57812e-015 -2.34566e-014
rhumerus -36.2663 -18.1965 -69.1857
rradius 21.7901
rwrist -11.6613
rhand -15.6938 0.24091
rfingers 7.12502
rthumb 10.4956 -29.4771
lclavicle 3.57812e-015 -2.34566e-014
lhumerus -29.8471 5.03038 82.1032
lradius 27.8742
lwrist 3.49142
lhand -10.0813 32.2304
lfingers 7.12502
lthumb 15.9054 61.5972
rfemur -30.9048 7.11083 12.2494
rtibia 27.2967
rfoot -2.29599 4.7539
rtoes 6.99568
lfemur -10.4327 3.92312 -22.0268
ltibia 29.0929
lfoot -20.1268 1.40002
ltoes -4.68846
486
root 2.34492 17.7807 -5.0457 6.36674 -2.15082 -1.51981
lowerback -0.188715 -0.250415 -7.06198
upperback 0.601254 -0.31941 3.73889
thorax 0.79238 -0.217726 7.89778
lowerneck -21.1262 -9.39999 -5.90782
upperneck 12.6621 -12.2275 6.6627
head 8.13257 -5.44372 1.51544
rclavicle 1.44119e-015 -1.27222e-014
rhumerus -37.03 -19.212 -68.2476
rradius 21.0518
rwrist -10.3813
rhand -15.8829 0.785764
rfingers 7.12502
rthumb 10.3131 -28.9414
lclavicle 1.44119e-015 -1.27222e-014
lhumerus -30.4068 5.53457 81.855
lradius 27.3529
lwrist 3.21531
lhand -10.0953 32.0789
lfingers 7.12502
lthumb 15.8919 61.4468
rfemur -30.9523 7.09432 12.2793
rtibia 27.1999
rfoot -2.7615 4.60601
rtoes 5.18319
lfemur -10.523 4.03033 -22.0704
ltibia 29.043
lfoot -19.9847 1.55426
ltoes -4.83188
487
root 2.35041 17.787 -5.05539 6.39884 -2.35732 -1.57666
lowerback -0.38417 -0.318454 -7.02211
upperback 0.545114 -0.399396 3.72979
thorax 0.858667 -0.258641 7.86315
lowerneck -21.1669 -9.33423 -5.88575
upperneck 12.8771 -12.1507 6.62075
head 8.20281 -5.40487 1.50464
rclavicle 1.18774e-014 -3.85642e-014
rhumerus -37.7224 -20.0893 -67.4786
rradius 20.4854
rwrist -9.20689
rhand -16.1458 1.28398
rfingers 7.12502
rthumb 10.0595 -28.4556
lclavicle 1.18774e-014 -3.85642e-014
lhumerus -30.8594 6.10831 81.5137
lradius 26.8845
lwrist 2.6134
lhand -9.61529 31.8785
lfingers 7.12502
lthumb 16.3541 61.209
rfemur -30.9712 7.09175 12.3694
rtibia 27.1497
rfoot -3.24674 4.54063
rtoes 3.60935
lfemur -10.5462 4.13859 -22.0747
ltibia 28.9902
lfoot -19.8916 1.77608
ltoes -4.82921
